PathFileType	4	(X/Y/Z)	C:\Users\WrightLab\Desktop\Jo\P4V121.trc
DataRate	CameraRate	NumFrames	NumMarkers	Units	OrigDataRate	OrigDataStartFrame	OrigNumFrames
100.00	100.00	       23	19	mm	100.00	138	       551
Frame#	Time	Headset_Front			Headset_Back			Headset_Left			Headset_Right			Left_Shoulder			Right_Shoulder			Sternum			C7			Left Elbow			Right Elbow			Left Wrist			Right Wrist			Left ASIS			Right ASIS			S2			Left Knee			Right Knee			Left Ankle			Right Ankle			
		X1	Y1	Z1	X2	Y2	Z2	X3	Y3	Z3	X4	Y4	Z4	X5	Y5	Z5	X6	Y6	Z6	X7	Y7	Z7	X8	Y8	Z8	X9	Y9	Z9	X10	Y10	Z10	X11	Y11	Z11	X12	Y12	Z12	X13	Y13	Z13	X14	Y14	Z14	X15	Y15	Z15	X16	Y16	Z16	X17	Y17	Z17	X18	Y18	Z18	X19	Y19	Z19	

138	1.370	-504.93484	1738.41321	-1044.56287													-655.92914	1490.86963	-1005.54163	-528.27374	1419.75842	-858.98401	-498.41467	1525.24890	-1018.12231	-221.84567	1142.13672	-901.15363	-816.77850	1150.15271	-1017.60370	-297.24576	862.92395	-776.72382	-843.01904	913.41895	-823.11432	-384.76279	988.98328	-853.91217	-690.16473	994.75354	-989.82458				-443.98212	546.35681	-728.47638	-634.56830	514.99188	-1077.74780	-531.29077	31.77379	-724.02655				
139	1.380	-507.36597	1736.21472	-1035.93396	-607.41309	1680.09717	-831.60425										-658.70355	1489.27954	-995.94788	-530.00745	1417.35791	-849.92828	-501.10727	1523.32666	-1009.06854	-224.20811	1139.40234	-894.66589	-819.97205	1148.65247	-1007.54553	-298.24176	860.76453	-771.56921	-846.21973	914.69189	-810.70313	-388.56110	986.18707	-844.57990	-694.25580	994.83337	-976.45984				-447.27924	541.85297	-724.79327	-636.45398	514.03278	-1072.05823	-541.76605	30.22706	-693.51294				
140	1.390	-509.69357	1734.12976	-1027.59802													-661.33185	1487.53479	-986.41296	-532.91534	1415.21326	-840.46045	-503.78558	1521.09399	-1000.02203	-226.17264	1136.98462	-889.10211	-822.92389	1147.28564	-997.65424	-299.11774	857.75861	-765.44476	-849.68463	915.50110	-798.17950	-391.29532	983.49652	-835.54663	-697.97198	992.38702	-965.35254				-450.63193	536.14429	-720.96185	-638.99133	513.31683	-1066.24463	-552.34778	30.87655	-666.44629				
141	1.400	-511.80377	1731.73938	-1018.78912													-663.83588	1485.90857	-976.66919	-535.00201	1414.55908	-830.95081	-506.13327	1519.26550	-991.19562	-228.48935	1134.66553	-882.53540	-825.79584	1145.74561	-987.11572	-299.79330	854.55078	-759.70355	-852.49780	915.76178	-785.30109	-395.76721	980.18542	-825.97180	-701.88739	990.61151	-955.83972				-455.67685	531.36798	-717.28735	-641.31360	512.25006	-1060.81433	-562.52966	31.84801	-639.10791				
142	1.410	-513.89771	1729.40454	-1009.81519													-666.27698	1483.94971	-966.89380	-537.27502	1412.34717	-822.23999	-508.44635	1517.25293	-981.82928	-230.13925	1132.22498	-874.84888	-828.48846	1143.95996	-976.93970	-300.60583	851.11371	-752.06061	-855.27258	916.90753	-773.51904	-400.02872	977.26624	-816.58612	-705.50397	987.06537	-948.95569				-460.49850	526.45245	-712.59692	-643.92468	511.20087	-1054.05334	-570.23651	33.69112	-615.41339				
143	1.420	-515.69452	1727.25769	-1000.94629													-668.45526	1482.36951	-957.24835	-539.39514	1410.58752	-811.82025	-510.75226	1514.68140	-972.17633	-231.88542	1130.32056	-868.03882	-831.16516	1142.51880	-966.63733	-300.91873	848.04871	-746.96515	-857.32324	917.32819	-759.86816	-402.38477	974.71838	-806.24884	-709.84796	984.83923	-937.32031				-464.42334	521.98700	-705.94281	-646.66608	510.12350	-1046.96082	-577.77039	35.26666	-593.75250				
144	1.430	-517.48102	1724.99731	-991.87878	-403.72079	1608.06787	-651.95331										-670.73657	1480.44849	-947.40167	-541.16705	1408.04626	-802.34326	-512.71027	1512.72534	-962.47400	-234.00433	1127.55457	-861.57343	-833.60266	1140.68530	-956.38348	-301.25580	845.18640	-740.54510	-859.54926	917.46649	-748.02649	-405.32574	972.25421	-796.89246	-713.56458	985.93225	-926.51776				-468.49854	518.50854	-698.69635	-649.60840	509.01697	-1040.04395	-584.98145	35.51201	-574.97137				
145	1.440	-519.06281	1722.98438	-982.42438	-404.98734	1607.30579	-643.34662										-672.78168	1478.73999	-937.21252	-543.49420	1407.09485	-792.67145	-514.72064	1510.69678	-953.48560	-236.02097	1124.84546	-853.53662	-836.01611	1139.17993	-946.55377	-301.82660	841.51593	-734.85278	-861.87830	917.99176	-736.12189	-409.61063	968.92419	-786.68311	-716.86621	983.83716	-915.37708				-472.08752	517.32526	-687.54608	-652.62653	508.71112	-1032.70764	-592.13965	35.49215	-560.55170				
146	1.450	-520.55536	1721.35242	-973.31616	-618.92444	1669.47595	-767.33386										-675.12268	1476.84766	-926.58893	-545.00629	1405.33936	-782.44812	-516.59747	1508.70593	-943.15143	-237.53581	1122.15808	-845.23706	-838.25360	1137.50525	-935.82300	-302.67438	837.71771	-727.45941	-863.25916	917.19971	-723.22620	-413.29059	966.49115	-777.56226	-719.99084	982.69830	-905.34662				-476.64578	516.22565	-676.01770	-656.13617	507.10120	-1024.00684	-596.54388	34.02662	-549.93713				
147	1.460	-522.00623	1719.48083	-964.26245	-407.58127	1604.29785	-623.38312										-676.72260	1475.69934	-915.98419	-546.27588	1403.47778	-771.87817	-518.52539	1507.05579	-933.53229	-239.55461	1119.89221	-836.99158	-840.21735	1136.21570	-925.62714	-303.57190	834.81738	-720.46204	-864.89276	917.32526	-711.93225	-415.77942	965.49915	-767.47882	-722.76605	978.87360	-895.77307				-480.65811	516.21594	-663.05988	-660.20154	507.25070	-1015.89282	-601.19293	30.61364	-541.72565				
148	1.470	-523.34723	1718.07642	-954.28058	-409.10583	1601.82776	-611.75958										-678.59882	1474.48792	-905.71478	-547.33051	1401.94995	-761.44977	-520.16229	1505.81531	-923.18738	-241.63765	1118.14319	-828.86255	-842.15424	1134.82495	-915.04669	-303.84570	832.30304	-714.90295	-866.60077	918.49622	-700.99268	-419.27753	962.92627	-757.46924	-726.51520	978.21832	-886.89746				-483.82382	517.71722	-650.82874	-665.05988	506.46832	-1006.12793	-602.84509	30.36308	-536.00580				
149	1.480	-524.59943	1716.80774	-944.60272	-409.88242	1602.23718	-603.75189										-680.63306	1473.63757	-894.94611	-548.96295	1402.12561	-751.06311	-521.86145	1504.90833	-912.79694	-244.00345	1115.96704	-820.79578	-843.76611	1133.92993	-904.81305	-304.28741	829.99719	-708.40497	-867.66254	918.42133	-688.77502	-422.19028	962.18420	-747.25879	-729.89209	977.50415	-875.26147				-488.52246	518.15167	-637.72278	-670.18433	506.68555	-997.31525	-607.22681	26.71013	-533.11249				
150	1.490	-525.85138	1715.74438	-934.76984	-410.84875	1601.59338	-593.27954										-682.12329	1473.04077	-883.45929	-548.94592	1400.20056	-740.18958	-523.40216	1504.11206	-902.32483	-246.04251	1114.84143	-811.84723	-845.07233	1132.97119	-894.21399	-304.56598	826.69586	-700.52521	-869.24750	918.56873	-677.21777	-424.85611	961.73969	-735.04858	-733.30096	977.46204	-863.88965				-491.77652	518.41602	-625.87549	-674.97314	506.33405	-986.97705	-607.38477	25.44016	-532.16681				
151	1.500	-527.06757	1714.89673	-924.72321	-411.71191	1601.22375	-582.45502										-683.62250	1472.59497	-872.21356	-550.18384	1400.47253	-730.22949	-524.99017	1503.46191	-891.83014	-247.72467	1113.90125	-803.02399	-846.23157	1132.66406	-883.81439	-305.51538	825.08746	-695.06323	-870.13269	917.50537	-665.92316	-426.73715	962.39520	-724.29352	-735.85120	978.97467	-845.18890				-495.32306	519.09778	-612.47113	-680.89294	506.78781	-977.15192	-607.61200	26.55015	-531.23663				
152	1.510	-528.16290	1714.69702	-914.96680	-412.55280	1600.98108	-571.91797							-389.37299	1465.94849	-788.96661	-684.82983	1472.95081	-860.63513	-550.52954	1400.37341	-718.69073	-526.39423	1503.00793	-881.80170	-249.73570	1113.23816	-793.90558	-847.01495	1132.84741	-873.06012	-306.21982	822.81445	-687.01758	-871.88959	917.18835	-657.04016	-429.15173	962.92365	-712.03503	-740.03461	979.27179	-830.45288				-498.67825	519.72992	-599.82391	-686.56653	507.98953	-966.82410	-610.17285	28.26400	-528.81683				
153	1.520	-529.18005	1714.88110	-904.26831	-413.18011	1601.69202	-561.38348							-389.69168	1466.07202	-780.76971	-685.91357	1473.33093	-849.70831	-551.61182	1401.56030	-708.24530	-527.43018	1503.21777	-871.53070	-251.63950	1112.50989	-785.27795	-847.88281	1132.61096	-861.39050	-306.73672	821.47687	-680.26807	-872.39709	917.94629	-646.59076	-432.45538	963.47839	-700.00214	-741.93396	979.22638	-820.62689				-501.02725	518.85010	-588.33936	-692.09222	508.47903	-955.22052							
154	1.530	-530.01880	1715.98840	-893.71051	-625.38910	1668.00098	-685.22504							-391.11746	1467.02661	-772.04041	-687.43170	1474.31079	-838.05719	-553.01202	1402.41455	-697.58252	-528.37482	1503.42761	-861.27716	-253.35681	1112.77026	-775.65570	-848.79962	1133.25256	-850.17133	-307.22333	820.46222	-673.20313	-873.04059	918.17383	-636.57300	-435.12640	965.14874	-687.27753	-746.47095	980.94427	-804.47040				-503.31134	518.22931	-578.45276	-699.03882	510.27246	-943.35748	-614.69653	33.26419	-524.33807				
155	1.540	-530.86798	1717.43420	-883.07141										-391.22598	1467.01978	-760.07404	-687.73279	1475.30640	-827.01196	-552.00836	1403.14441	-685.68390	-529.16882	1504.20056	-851.01105	-255.11893	1112.47217	-765.66351	-849.09448	1134.56274	-839.61237	-307.89844	819.56183	-665.92133	-872.96826	917.08722	-625.47601	-437.86588	966.51514	-673.82941	-749.54858	982.06500	-790.65222				-507.43207	516.53662	-569.21631	-705.13885	511.55692	-930.27502							
156	1.550	-531.64471	1719.44031	-872.41016										-391.89096	1467.76794	-748.47687	-688.56018	1477.35547	-816.60986	-552.64282	1406.29797	-674.78937	-529.99280	1505.12024	-840.42651	-257.05704	1112.95349	-757.17273	-849.11688	1136.14343	-828.28119	-309.15884	819.74902	-658.58612	-873.98145	917.21698	-615.89850	-440.64307	967.56061	-663.29095	-751.06909	982.93915	-779.77295				-510.07880	515.51135	-558.68048	-712.40247	513.21783	-915.39734	-619.34283	34.56297	-517.93396				
157	1.560	-532.28906	1721.48438	-861.66925										-391.89941	1469.01624	-739.59869	-689.10248	1479.10291	-805.38123	-552.82892	1408.51672	-663.65350	-530.60315	1506.42029	-830.32397	-258.92798	1113.66968	-747.60724	-849.20422	1138.11230	-816.59802	-310.23907	820.18475	-651.50842	-874.59454	917.25287	-606.82050	-440.87616	969.25177	-649.68298	-754.52972	983.46625	-764.58295				-512.46918	515.85236	-549.69696	-719.94440	514.66309	-899.87817	-619.37909	36.90751	-517.18640				
158	1.570	-532.91217	1723.62927	-850.48297										-391.57321	1470.93494	-732.22046	-689.71442	1481.10693	-794.02612	-552.82977	1410.84753	-652.39221	-531.19702	1507.88538	-819.51996	-260.61771	1115.33374	-737.97150	-849.23297	1139.71655	-804.67438	-311.05173	820.62378	-642.04785	-874.91968	918.09003	-596.77533	-443.93976	971.08374	-637.95648	-756.51849	985.02289	-755.73712				-513.76678	516.92181	-539.00256	-727.58185	515.52722	-882.03033	-619.11725	38.28570	-515.07635				
159	1.580	-533.48553	1725.83923	-840.20703										-393.10355	1473.17114	-722.02594	-690.07819	1483.70422	-782.79688	-553.41937	1414.16125	-641.63275	-531.88831	1509.37500	-809.11316	-261.80200	1116.49121	-727.85437	-848.81061	1142.28357	-793.78424	-311.96588	821.71277	-633.73499	-875.26068	918.40710	-587.17395	-444.63489	973.47266	-626.46851	-759.15582	988.76953	-736.17798				-513.91998	518.13104	-529.04779	-737.12549	515.85706	-864.28577	-621.05933	36.82237	-513.38281				
160	1.590	-533.87738	1728.53442	-829.68726	-627.21185	1677.51196	-620.71173							-392.84128	1475.17468	-714.43732	-690.53113	1485.81238	-771.91382	-553.41626	1416.55847	-631.15625	-532.53015	1511.04456	-798.94568	-263.28433	1118.08960	-717.81482	-848.68933	1144.56689	-782.46875	-312.82840	822.93695	-625.32666	-875.40106	918.08905	-579.20776	-445.58478	975.43793	-616.02924	-760.65295	990.39893	-721.96259				-515.99152	518.72534	-520.16614	-746.40558	515.85071	-844.38220	-620.41656	37.15367	-511.84579				
